<svg width="120" height="40" viewBox="0 0 120 40" fill="none" xmlns="http://www.w3.org/2000/svg">
  <!-- E estilizado -->
  <path d="M8 8h18v6h-12v4h10v6h-10v4h12v6H8V8z" fill="#D4A256"/>
  <!-- lo -->
  <path d="M30 8h6v20h8v6h-14V8z" fill="#D4A256"/>
  <path d="M48 14c0-3.3 2.7-6 6-6h4c3.3 0 6 2.7 6 6v14c0 3.3-2.7 6-6 6h-4c-3.3 0-6-2.7-6-6V14zm6 0v14h4V14h-4z" fill="#D4A256"/>
  <!-- 42 -->
  <path d="M72 8h6v10l6-10h6v6l-6 8 6 10v2h-6l-6-10v10h-6V8z" fill="#D4A256"/>
  <path d="M96 20v-6h6v-6h6v6h4v6h-4v8c0 3.3-2.7 6-6 6h-6v-6h6v-8h-6z" fill="#D4A256"/>
</svg>
